<?xml version="1.0" encoding="utf-8"?>
<!-- Generator: Adobe Illustrator 26.3.1, SVG Export Plug-In . SVG Version: 6.00 Build 0)  -->
<svg version="1.1" id="Calque_1" xmlns="http://www.w3.org/2000/svg" xmlns:xlink="http://www.w3.org/1999/xlink" x="0px" y="0px"
	 viewBox="0 0 413.8 333.2" style="enable-background:new 0 0 413.8 333.2;" xml:space="preserve">
<style type="text/css">
	.st0{fill:#FFFFFF;}
</style>
<g>
	<g>
		<path class="st0" d="M1.5,50.9l4.6-3.3l29,19.5l-4.6,3.2l-7.7-5.3L11.6,73l2.4,9l-4.1,2.9L1.5,50.9z M20,62.8L6.3,53.5l4.1,16
			L20,62.8z"/>
		<path class="st0" d="M58.3,19.8l14.9-5c5.3-1.8,11-0.6,13.2,5.8c1.7,5.1-0.4,10.8-6.8,13l-10,3.4L73.7,49l-4.9,1.7L58.3,19.8z
			 M77.4,30.4c2.9-1,5.7-3.6,4.2-8c-1.8-5.2-6.1-4.6-8.5-3.8l-8.8,3l4,11.8L77.4,30.4z"/>
		<path class="st0" d="M104.4,6.6l16.5-2.3c5.3-0.7,10.6,1.3,11.5,7.8c0.7,4.8-1.6,8.8-6.5,10.5l10.3,12.5l-5.7,0.8l-9.7-12.1
			l-8.6,1.2l1.8,13.2l-5.2,0.7L104.4,6.6z M121.5,20c2.9-0.4,6-2.4,5.4-6.7c-0.7-5.1-4.9-5.4-7.3-5L110,9.6l1.6,11.8L121.5,20z"/>
		<path class="st0" d="M151.3,18.1c0.5-8.3,5.9-16.9,17.3-16.2c11.3,0.7,15.6,9.9,15.1,18.2c-0.5,8.3-5.7,16.9-17.2,16.2
			C154.9,35.6,150.8,26.4,151.3,18.1z M166.7,32.6c7.4,0.5,11.3-5.4,11.7-12.8c0.5-7.5-2.9-13.7-10.1-14.2
			c-7.2-0.4-11.3,5.3-11.8,12.8C156.2,25.9,159.4,32.2,166.7,32.6z"/>
		<path class="st0" d="M207.1,7.9l15.2,4c5.4,1.4,9.6,5.5,7.9,12.1c-1.4,5.2-6.2,8.8-12.8,7.1l-10.2-2.7l-3.2,12.4l-5-1.3L207.1,7.9
			z M217.2,27.2c3,0.8,6.8,0.1,7.9-4.4c1.4-5.3-2.6-7.1-5-7.8l-9-2.4L208,24.8L217.2,27.2z"/>
		<path class="st0" d="M244.4,36c3.6-7.4,11.9-13.4,22.1-8.4c10.2,4.9,10.7,15.1,7.1,22.6c-3.6,7.5-11.7,13.5-22.1,8.4
			C241,53.5,240.8,43.5,244.4,36z M253.1,55.3c6.7,3.2,12.4-0.7,15.7-7.4c3.3-6.8,2.6-13.8-3.9-16.9c-6.5-3.1-12.5,0.6-15.8,7.4
			C245.9,45.1,246.5,52,253.1,55.3z"/>
		<path class="st0" d="M285.3,63.9l4.3,3.3c-3.2,4.5-1.9,8.7,2.2,11.8c3.6,2.7,8,3.2,11-0.8c1.7-2.3,2.3-5.1-0.5-7.3
			c-2.1-1.6-5.5-2-8.4-4.2c-4.7-3.5-3.9-8.2-1.2-11.7c3.6-4.8,9.9-6.3,17-0.9c5.6,4.3,8.5,10.4,3.9,16.5l-4.2-3.2
			c2.9-4,1.5-8-2.1-10.6c-3.3-2.5-7.4-3-10.6,1.2c-1.4,1.9-2.4,4.4,0.8,6.8c2.4,1.8,5.7,2.1,8.4,4.1c4.5,3.4,3.7,8.6,0.9,12.3
			c-4.8,6.3-12.3,4.5-17.4,0.6C283.7,77.6,279.9,71.3,285.3,63.9z"/>
		<path class="st0" d="M354.3,97.9l8.4,11.6c5,6.9,4.7,15.4-4.2,21.9c-7.5,5.5-16.5,5-22.3-2.8l-8.3-11.4L354.3,97.9z M339.2,126.3
			c3.5,4.7,10,5.3,16.1,0.8c6.8-5,7.3-11.2,3.8-16.1l-4.9-6.7L334,119.1L339.2,126.3z"/>
		<path class="st0" d="M382.9,141.5l10.5,22.4l-3.4,1.6l-8.3-17.8l-8.8,4.1l7.7,16.3l-3.4,1.6l-7.7-16.3l-10.6,5l8.4,17.9l-3.4,1.6
			l-10.6-22.6L382.9,141.5z"/>
		<path class="st0" d="M408.4,214.1l0.9,7.2l-25.5,12.1l27.7,5.6l0.9,7.4l-32,6.8l-0.6-5l26.7-5.7l-28.1-5.7l-0.7-5.8l25.8-12.4
			l-27.2,0.9l-0.5-4.2L408.4,214.1z"/>
		<path class="st0" d="M396.3,271.2c8.2,0.9,16.6,6.7,15.4,18c-1.2,11.3-10.6,15.2-18.8,14.3c-8.3-0.9-16.6-6.4-15.4-17.9
			C378.7,274,388.1,270.3,396.3,271.2z M381.2,285.9c-0.8,7.4,4.9,11.5,12.3,12.3c7.5,0.8,13.8-2.3,14.6-9.5
			c0.7-7.1-4.8-11.5-12.3-12.3C388.3,275.7,382,278.6,381.2,285.9z"/>
		<path class="st0" d="M404.2,326.3l-1.3,5l-31.5-8.4l1.3-5L404.2,326.3z"/>
	</g>
</g>
</svg>
