<?xml version="1.0" encoding="utf-8"?>
<!-- Generator: Adobe Illustrator 26.3.1, SVG Export Plug-In . SVG Version: 6.00 Build 0)  -->
<svg version="1.1" id="Calque_1" xmlns="http://www.w3.org/2000/svg" xmlns:xlink="http://www.w3.org/1999/xlink" x="0px" y="0px"
	 viewBox="0 0 413.8 151.9" style="enable-background:new 0 0 413.8 151.9;" xml:space="preserve">
<style type="text/css">
	.st0{fill:#E26B6B;}
</style>
<g>
	<g>
		<g>
			<g>
				<path class="st0" d="M13.2,146.3c-6.4-3.2-11.5-10.2-7-19.2c3.2-6.3,9.3-8.3,15.1-6.1l-2,4c-4.4-1.5-8.4-0.1-10.2,3.6
					c-2.8,5.7,0.5,10.7,6.2,13.6c5.7,2.8,11.7,2.4,14.5-3.3c2.1-4.1,0.7-8.1-3.3-10.8l2-4c5.3,3.4,7.6,9.4,4.2,16.3
					C28.2,149.3,19.6,149.5,13.2,146.3z"/>
				<path class="st0" d="M33.2,109.4c-5.6-4.4-9.1-12.5-3-20.2c6-7.7,14.7-6.2,20.3-1.8c5.6,4.4,9.2,12.3,3,20.2
					C47.3,115.5,38.8,113.8,33.2,109.4z M51,105.6c3.9-5,1.7-10.6-3.3-14.6c-5.1-4-11.1-4.7-15,0.2c-3.8,4.9-1.8,10.6,3.3,14.6
					C41.1,109.8,47.1,110.6,51,105.6z"/>
				<path class="st0" d="M53.4,64.7l3.5-3l26.2,6.2L69.3,51.3l3-2.5l18,21.5l-3.4,2.9l-26.5-6.1l13.9,16.6l-2.9,2.4L53.4,64.7z"/>
				<path class="st0" d="M97.5,36.6l-8.4,4.7l-1.6-2.8L108.3,27l1.6,2.8l-8.4,4.7l12.1,21.7l-3.9,2.2L97.5,36.6z"/>
				<path class="st0" d="M129.5,18.2l4.6-1.6l19.6,22.9l-4.6,1.6l-5.2-6.2l-11.2,4l-0.1,8.1l-4,1.4L129.5,18.2z M142.2,32.4
					L133,21.5l-0.3,14.2L142.2,32.4z"/>
				<path class="st0" d="M161.9,23c-1.1-7.1,1.7-15.3,11.6-16.8c7-1.1,12.2,2.8,13.7,8.8l-4.4,0.7c-1.3-4.4-4.7-6.9-8.8-6.3
					c-6.3,1-8.5,6.6-7.5,12.9c1,6.3,4.7,10.9,11,10c4.5-0.7,7-4.1,6.9-8.9l4.5-0.7c0.3,6.2-3.3,11.7-10.9,12.8
					C168,37,162.9,30.1,161.9,23z"/>
				<path class="st0" d="M212.1,7.8l-9.6-0.3l0.1-3.2l23.7,0.8l-0.1,3.2L216.6,8l-0.9,24.9l-4.5-0.2L212.1,7.8z"/>
				<path class="st0" d="M244.5,7.6l20.8,4.6l-0.7,3.2l-16.5-3.6l-1.8,8.2l15.2,3.3l-0.7,3.1L245.6,23l-2.2,9.8l16.6,3.7l-0.7,3.2
					l-21-4.6L244.5,7.6z"/>
				<path class="st0" d="M272.1,40.8l24.8-13.5l-15.2-6.5l1.3-3l20.6,8.9l-1,2.4l-24.8,13.5l16.1,6.9l-1.3,3l-21.6-9.3L272.1,40.8z"
					/>
				<path class="st0" d="M312,45.6l12.8,8l-1.8,2.9l-12.8-8L312,45.6z"/>
				<path class="st0" d="M349.9,56.1l4.5,4.3l-10.2,22l21.4-11.5l4.7,4.4l-17.5,22.1l-3.2-3L364.1,76l-21.7,11.6l-3.7-3.5L349,61.8
					l-17.6,15.5l-2.7-2.5L349.9,56.1z"/>
				<path class="st0" d="M373.2,100.5c5.9-3.9,14.7-4.7,20.1,3.5c5.4,8.1,1.3,15.9-4.6,19.8c-6,4-14.6,4.9-20.1-3.4
					C363,112,367.2,104.4,373.2,100.5z M371.2,118.6c3.5,5.3,9.5,5,14.9,1.4c5.4-3.6,7.9-9.1,4.5-14.3c-3.4-5.1-9.5-5-14.9-1.4
					C370.3,107.8,367.7,113.3,371.2,118.6z"/>
				<path class="st0" d="M408.6,132.8l1.9,4.1l-25.5,11.7l-1.9-4.1L408.6,132.8z"/>
			</g>
		</g>
	</g>
</g>
</svg>
