<?xml version="1.0" encoding="utf-8"?>
<!-- Generator: Adobe Illustrator 26.3.1, SVG Export Plug-In . SVG Version: 6.00 Build 0)  -->
<svg version="1.1" id="Calque_1" xmlns="http://www.w3.org/2000/svg" xmlns:xlink="http://www.w3.org/1999/xlink" x="0px" y="0px"
	 viewBox="0 0 100 100" style="enable-background:new 0 0 100 100;" xml:space="preserve">
<style type="text/css">
	.st0{fill:#FFFFFF;}
</style>
<g>
	<g>
		<g>
			<path class="st0" d="M50,100C22.4,100,0,77.6,0,50C0,22.4,22.4,0,50,0s50,22.4,50,50C100,77.6,77.6,100,50,100z M50,2.2
				C23.7,2.2,2.2,23.7,2.2,50c0,26.3,21.4,47.8,47.8,47.8S97.8,76.3,97.8,50C97.8,23.7,76.3,2.2,50,2.2z"/>
		</g>
	</g>
	<g>
		<g>
			<path class="st0" d="M30.2,37.4c2,0,3.8,0,5.7,0c0.8,0,1.5,0,2.3-0.1c2.6-0.4,4.6-2.5,4.6-5.2c0-0.6,0-1.2,0-1.9
				c-1.2,0-2.4,0-3.6,0c0,0.5,0,1.1,0,1.6c0,1.2-0.7,1.9-1.9,2c-2.3,0-4.6,0-6.8,0c-0.1,0-0.2,0-0.3-0.1c-0.1-1,0.2-2,0.9-2.7
				c1.8-1.8,3.5-3.6,5.3-5.3c0.7-0.6,1.5-0.9,2.4-0.9c9.1,0,18.3,0,27.4,0c2,0,3.5,1.5,3.6,3.5c0,0.2,0,0.4,0,0.5
				c0,14.1,0,28.3,0,42.4c0,1-0.2,1.9-0.8,2.6c-0.8,1-1.8,1.4-3,1.4c-4.4,0-8.7,0-13.1,0c-6.3,0-12.6,0-18.9,0c-1.9,0-3.3-1-3.7-2.8
				c-0.1-0.3-0.1-0.7-0.1-1c0-11.2,0-22.3,0-33.5C30.2,37.8,30.2,37.6,30.2,37.4z M44.6,41c0,3,2.4,5.4,5.4,5.4c3,0,5.4-2.4,5.4-5.4
				c0-3-2.4-5.4-5.4-5.4C47,35.6,44.6,38,44.6,41z M39.2,62.6c7.2,0,14.4,0,21.5,0c0-1.2,0-2.4,0-3.5c-7.2,0-14.4,0-21.5,0
				C39.2,60.2,39.2,61.4,39.2,62.6z M44.6,55.3c0-0.4,0-0.6,0-0.9c0-0.9,0.8-1.7,1.7-1.7c2.5,0,4.9,0,7.4,0c0.9,0,1.6,0.8,1.7,1.7
				c0,0.3,0,0.7,0,1c1.2,0,2.4,0,3.6,0c0-0.4,0-0.7,0-1c-0.1-2.8-2.2-5.1-4.9-5.2c-2.8-0.1-5.5-0.1-8.3,0c-3,0.2-5.2,3.1-4.7,6.1
				C42.2,55.3,43.3,55.3,44.6,55.3z M44.6,69.7c3.6,0,7.2,0,10.7,0c0-1.2,0-2.3,0-3.5c-3.6,0-7.2,0-10.7,0
				C44.6,67.4,44.6,68.6,44.6,69.7z"/>
			<path class="st0" d="M50,39.2c1,0,1.8,0.8,1.8,1.8c0,1-0.8,1.8-1.8,1.8c-1,0-1.8-0.8-1.8-1.8C48.2,40,49,39.2,50,39.2z"/>
		</g>
	</g>
</g>
</svg>
