<?xml version="1.0" encoding="utf-8"?>
<!-- Generator: Adobe Illustrator 26.3.1, SVG Export Plug-In . SVG Version: 6.00 Build 0)  -->
<svg version="1.1" id="Calque_1" xmlns="http://www.w3.org/2000/svg" xmlns:xlink="http://www.w3.org/1999/xlink" x="0px" y="0px"
	 viewBox="0 0 100 100" style="enable-background:new 0 0 100 100;" xml:space="preserve">
<style type="text/css">
	.st0{fill:#FFFFFF;}
</style>
<g>
	<g>
		<g>
			<path class="st0" d="M50,100C22.4,100,0,77.6,0,50C0,22.4,22.4,0,50,0s50,22.4,50,50C100,77.6,77.6,100,50,100z M50,2.2
				C23.7,2.2,2.2,23.7,2.2,50c0,26.3,21.4,47.8,47.8,47.8S97.8,76.3,97.8,50C97.8,23.7,76.3,2.2,50,2.2z"/>
		</g>
		<g>
			<path class="st0" d="M29.8,55.9c-0.2-0.2-0.2-0.4,0-0.6c0.4-0.4,0.8-0.5,1.4-0.4c0.6,0.1,0.9,0.2,1,0.3c0.7,0.3,1.4,0.9,2.2,1.9
				c0.8,1,1.4,1.7,1.9,2c2.2,1.9,4.5,2,6.8,0.4c0.2-0.7,0.5-1.2,0.9-1.7c0.4-0.5,0.8-0.8,1.2-1c0.4-0.2,1-0.5,2-0.8
				c-3.1-0.3-5.6-0.8-7.5-1.6c-1.9-0.8-3.4-1.8-4.5-3c-1.5-1.7-2.4-3.9-2.7-6.6c-0.3-2.7-0.1-5.2,0.6-7.4c0.6-1.4,1.3-2.7,2.4-3.8
				c-0.7-2.3-0.6-5,0.4-8c3,0.2,5.7,1.2,8.1,3.1c4.7-1.2,9.5-1.3,14.5-0.1c0.7-0.5,1.7-1,3-1.7c1.3-0.7,3-1.1,5.1-1.2
				c0.4,1,0.6,2.2,0.8,3.6c0.1,1.4,0.1,2.7-0.2,3.9c2.1,2.2,3.3,5.2,3.3,8.9c0,3-0.5,5.4-1.5,7.4c-1,2-2.8,3.6-5.4,4.9
				c-1.8,0.8-4.1,1.3-7,1.5c1.3,0.7,2.3,1.3,2.9,2c0.6,0.7,1,1.8,1.2,3.3v4.4l0.1,4.3c0.3,0.5,0.6,0.9,1,1.2c0.4,0.3,0.7,0.6,1,0.7
				c0.3,0.1,0.4,0.3,0.3,0.6c-0.1,0.3-0.5,0.4-1.1,0.4c-1.6,0-2.8-0.6-3.8-1.7c-0.3-0.5-0.4-1-0.4-1.7v-6.7c0-0.7-0.2-1.3-0.6-1.6
				c-0.4-0.3-0.7-0.5-1.1-0.6v8.8c0,1.6,0.2,2.6,0.6,3.1c0.4,0.5,0.6,0.9,0.7,1.4c0.1,0.1,0,0.2-0.2,0.2c-0.2,0-0.6,0-1.2-0.2
				c-1.2-0.3-2-0.9-2.5-1.9s-0.7-2-0.7-3.1v-8.7h-1.8v8.7c0,1.1-0.2,2.2-0.7,3.2c-0.7,1.3-1.9,2-3.6,2.1C46.1,74.1,46,74,46,73.9
				c0.1-0.1,0.4-0.6,0.8-1.4c0.1-0.2,0.2-0.6,0.3-1.1c0.1-0.6,0.2-1.2,0.2-2v-8.8c-0.4,0.1-0.7,0.3-1,0.6s-0.5,0.9-0.5,1.6v6.7
				c0,0.7-0.1,1.2-0.4,1.7c-0.8,1.1-2.1,1.7-3.8,1.7c-0.7,0-1-0.1-1.1-0.4c-0.1-0.2-0.1-0.3,0.1-0.5c0.1-0.1,0.3-0.3,0.6-0.5
				c0.3-0.2,0.5-0.3,0.6-0.4c0.4-0.3,0.7-0.7,0.8-1.1c0.3-0.4,0.3-1.3,0.2-2.9c-0.1-1.6-0.2-2.6-0.1-3.1c-2.4,0.8-4.9,0.4-7.4-1.3
				c-0.7-0.7-1.5-1.8-2.2-3.2C32.6,58.5,31.4,57.3,29.8,55.9L29.8,55.9z"/>
		</g>
	</g>
</g>
</svg>
