<?xml version="1.0" encoding="utf-8"?>
<!-- Generator: Adobe Illustrator 26.3.1, SVG Export Plug-In . SVG Version: 6.00 Build 0)  -->
<svg version="1.1" id="Calque_1" xmlns="http://www.w3.org/2000/svg" xmlns:xlink="http://www.w3.org/1999/xlink" x="0px" y="0px"
	 viewBox="0 0 560.9 562.2" style="enable-background:new 0 0 560.9 562.2;" xml:space="preserve">
<style type="text/css">
	.st0{fill:#F26267;}
</style>
<g>
	<path id="SVGID_x5F_1_x5F_" style="fill:none;" d="M5515.4,28.4c27.4-39.9,81.9-50.1,121.8-22.7s50.1,81.9,22.7,121.8
		c-27.4,39.9-81.9,50.1-121.8,22.7C5498.2,122.8,5488,68.3,5515.4,28.4"/>
	<text>	<textPath  xlink:href="#SVGID_x5F_1_x5F_" startOffset="5301.2207%">
<tspan  class="st0" style="font-family:'CASpotnik-Regular'; font-size:17.6407px; letter-spacing:260;">DEVELOPPEUR WEB - DEVELOPPEUR WEB - </tspan>	</textPath>
</text>
	<g>
		
			<text transform="matrix(0.8822 0.4708 -0.4708 0.8822 5545.98 92.0898)" class="st0" style="font-family:'NaNJaune-MidiLight'; font-size:87.403px;">↓</text>
	</g>
</g>
<g>
	<g>
		<path class="st0" d="M52.7,117.3l9.7-12c5.8-7.2,14.7-9.2,24-1.8c7.8,6.3,9.9,15.8,3.3,24l-9.5,11.9L52.7,117.3z M86.5,125
			c3.9-4.9,2.7-11.9-3.7-17c-7.1-5.7-13.8-4.5-17.8,0.6l-5.6,7l21.2,17L86.5,125z"/>
		<path class="st0" d="M90.1,75.2l20.4-17.3l2.6,3.1L96.9,74.7l6.8,8l14.9-12.6l2.6,3l-14.9,12.6l8.1,9.6l16.3-13.8l2.6,3.1
			L112.8,102L90.1,75.2z"/>
		<path class="st0" d="M127.3,45.9l5.7-3.3l23.6,20.2l-5.3-30.7l5-2.8l5.7,37.3l-5.5,3.1L127.3,45.9z"/>
		<path class="st0" d="M176.7,20.6l25.3-8.7l1.3,3.8l-20,6.9l3.4,9.9l18.4-6.4l1.3,3.8l-18.4,6.4l4.1,11.9l20.2-7l1.3,3.8l-25.4,8.8
			L176.7,20.6z"/>
		<path class="st0" d="M225.6,6.2l5.6-0.9l4.9,30.6l18.9-3l0.7,4.1L231.2,41L225.6,6.2z"/>
		<path class="st0" d="M269.1,18.2c0.2-8.9,5.7-18.5,18-18.2c12.2,0.3,17.3,10.1,17.1,19c-0.2,9-5.4,18.5-17.9,18.2
			C273.6,36.9,268.9,27.2,269.1,18.2z M286.3,33.2c8,0.2,11.9-6.2,12.1-14.3c0.2-8.1-3.7-14.7-11.5-14.9c-7.7-0.2-12,6.2-12.2,14.3
			C274.6,26.4,278.3,33,286.3,33.2z"/>
		<path class="st0" d="M328.8,4.9l16.5,3.7c5.9,1.3,10.5,5.6,8.9,12.7c-1.3,5.6-6.4,9.7-13.5,8.2l-11.1-2.5l-3,13.5l-5.4-1.2
			L328.8,4.9z M340.5,25.3c3.3,0.7,7.3-0.1,8.4-5c1.3-5.8-3.1-7.6-5.7-8.2l-9.8-2.2l-2.9,13.1L340.5,25.3z"/>
		<path class="st0" d="M378.7,18.4l15.5,6.7c5.6,2.4,9.3,7.4,6.4,14.1c-2.3,5.3-8,8.4-14.8,5.5l-10.5-4.5L369.9,53l-5.1-2.2
			L378.7,18.4z M386.4,40.7c3.1,1.3,7.2,1.2,9.2-3.4c2.3-5.4-1.6-8-4.1-9.1l-9.2-4l-5.3,12.4L386.4,40.7z"/>
		<path class="st0" d="M425,40.9l22.3,14.8l-2.2,3.4l-17.6-11.7l-5.8,8.8l16.2,10.8l-2.2,3.3l-16.2-10.8l-7,10.5l17.8,11.8l-2.2,3.4
			l-22.4-14.9L425,40.9z"/>
		<path class="st0" d="M450.8,86.7L466.3,71l4,3.9l-15.1,15.3c-4.7,4.8-5.3,9.5-0.5,14.2c4.8,4.8,9.5,4.1,14.2-0.7l15.1-15.3l4,3.9
			l-15.5,15.7c-6.5,6.6-13.7,6.2-20.7-0.7S444.3,93.4,450.8,86.7z"/>
		<path class="st0" d="M504.7,112.6l10.1,14.9c3.2,4.7,3.8,10.9-2.1,14.9c-4.3,2.9-9.3,2.6-13.3-1.3l-7.1,15.9l-3.5-5.2l7.1-15.1
			l-5.2-7.8l-11.9,8.1l-3.1-4.7L504.7,112.6z M499.9,135.6c1.8,2.6,5.2,4.7,9.1,2.1c4.6-3.1,2.8-7.3,1.4-9.5l-5.8-8.6l-10.6,7.2
			L499.9,135.6z"/>
		<path class="st0" d="M543.5,182l1.6,5.7l-24.4,14.6l28.6,0.3l1.4,5L526.5,223l28.4-0.4l1.4,5l-36.5,0.3l-1.6-5.8l24.2-15.2
			l-28.6-0.3l-1.6-5.7L543.5,182z"/>
		<path class="st0" d="M559.2,251.1l1.7,26.7l-4,0.3l-1.3-21.1l-10.5,0.7l1.2,19.4l-4,0.3l-1.2-19.4l-12.6,0.8l1.3,21.3l-4,0.3
			l-1.7-26.9L559.2,251.1z"/>
		<path class="st0" d="M560.1,302.4l-2,15.8c-0.7,5.6-3.3,11.4-10.2,10.5c-5-0.6-6.7-4.7-6.8-9.6c-1.2,5.1-3.9,9.8-10.2,9.1
			c-7.1-0.9-8.6-7.4-7.8-13.5l2-16.5L560.1,302.4z M527,313.4c-0.4,3.2-0.2,8.5,5.4,9.2c5.3,0.7,7-4.1,7.4-7.3l1.2-9.7l-12.9-1.6
			L527,313.4z M543.3,315c-0.4,3.4,0,7.6,4.8,8.2c4.8,0.6,6.2-3.6,6.6-6.9l1.1-8.9l-11.4-1.4L543.3,315z"/>
		<path class="st0" d="M527.9,373.8l-7.3,17.5l-4-1.7l7.3-17.5L527.9,373.8z"/>
		<path class="st0" d="M509.4,443.1l-9.6,12.1c-5.7,7.2-14.7,9.3-24,2c-7.9-6.2-10-15.7-3.5-23.9l9.4-12L509.4,443.1z M475.6,435.6
			c-3.9,5-2.6,11.9,3.9,17c7.2,5.7,13.8,4.4,17.8-0.7l5.5-7l-21.3-16.8L475.6,435.6z"/>
		<path class="st0" d="M472.4,485.5l-20.3,17.4l-2.6-3.1l16-13.8l-6.8-8l-14.8,12.7l-2.6-3l14.8-12.7l-8.2-9.6l-16.2,13.9l-2.6-3.1
			l20.4-17.5L472.4,485.5z"/>
		<path class="st0" d="M435.4,515.1l-5.7,3.3l-23.8-20.1l5.5,30.6l-4.9,2.9l-5.9-37.2l5.5-3.2L435.4,515.1z"/>
		<path class="st0" d="M386.2,540.8l-25.2,8.9l-1.4-3.8l19.9-7.1l-3.5-9.9l-18.4,6.5l-1.3-3.8l18.3-6.5l-4.2-11.9l-20.1,7.1
			l-1.4-3.8l25.4-9L386.2,540.8z"/>
		<path class="st0" d="M337.4,555.5l-5.5,0.9l-5.1-30.6l-18.9,3.2l-0.7-4.1l24.4-4.1L337.4,555.5z"/>
		<path class="st0" d="M293.8,543.9c-0.1,8.9-5.5,18.5-17.8,18.3c-12.2-0.2-17.4-9.9-17.2-18.8c0.1-9,5.3-18.5,17.8-18.3
			C289.1,525.2,294,534.9,293.8,543.9z M276.5,529c-8-0.1-11.9,6.3-12,14.4c-0.1,8.1,3.8,14.7,11.6,14.8c7.7,0.1,11.9-6.3,12-14.4
			C288.2,535.7,284.5,529.1,276.5,529z"/>
		<path class="st0" d="M234.2,557.7l-16.5-3.5c-5.9-1.3-10.6-5.5-9-12.6c1.2-5.6,6.3-9.8,13.5-8.3l11.1,2.4l2.9-13.5l5.4,1.2
			L234.2,557.7z M222.3,537.3c-3.3-0.7-7.3,0.2-8.3,5.1c-1.2,5.8,3.1,7.6,5.8,8.1l9.8,2.1l2.8-13.2L222.3,537.3z"/>
		<path class="st0" d="M184.2,544.5l-15.6-6.5c-5.6-2.3-9.4-7.3-6.6-14.1c2.2-5.3,8-8.5,14.8-5.6l10.5,4.4l5.3-12.8l5.1,2.2
			L184.2,544.5z M176.3,522.3c-3.1-1.3-7.2-1.1-9.1,3.4c-2.3,5.5,1.7,8,4.2,9.1l9.3,3.9l5.2-12.4L176.3,522.3z"/>
		<path class="st0" d="M137.7,522.4l-22.4-14.6l2.2-3.4l17.7,11.6l5.7-8.8l-16.3-10.7l2.2-3.3l16.3,10.7l6.9-10.6l-17.9-11.7
			l2.2-3.4l22.5,14.7L137.7,522.4z"/>
		<path class="st0" d="M111.6,476.8l-15.4,15.9l-4-3.9l15-15.4c4.7-4.8,5.2-9.5,0.3-14.2c-4.9-4.7-9.5-4.1-14.2,0.8l-15,15.4l-4-3.9
			l15.4-15.9c6.5-6.7,13.6-6.4,20.7,0.5C117.4,462.9,118,470.1,111.6,476.8z"/>
		<path class="st0" d="M57.4,451.3l-10.2-14.8c-3.2-4.7-3.9-10.8,2-14.9c4.3-3,9.2-2.7,13.3,1.2l7-16l3.6,5.2l-7,15.2l5.3,7.7
			l11.9-8.2l3.2,4.6L57.4,451.3z M62.1,428.3c-1.8-2.6-5.3-4.6-9.1-2c-4.6,3.2-2.8,7.4-1.3,9.5l5.9,8.6l10.6-7.3L62.1,428.3z"/>
		<path class="st0" d="M18.1,382.3l-1.7-5.7l24.3-14.8l-28.6-0.1l-1.4-5l24.1-15.5l-28.4,0.6l-1.4-5l36.5-0.6l1.7,5.8L19,357.4
			l28.6,0.1l1.7,5.7L18.1,382.3z"/>
		<path class="st0" d="M1.9,313.3L0,286.6l4-0.3l1.5,21.1l10.5-0.7l-1.4-19.4l4-0.3l1.4,19.4l12.6-0.9l-1.5-21.3l4-0.3l1.9,26.9
			L1.9,313.3z"/>
		<path class="st0" d="M0.6,262l1.8-15.8c0.7-5.6,3.2-11.4,10.1-10.6c5,0.6,6.8,4.6,6.9,9.6c1.2-5.1,3.8-9.9,10.1-9.1
			c7.1,0.8,8.6,7.3,7.9,13.5l-1.9,16.5L0.6,262z M17.3,249.3c0.4-3.4-0.1-7.6-4.9-8.2c-4.8-0.6-6.1,3.6-6.5,6.9l-1,8.9l11.4,1.3
			L17.3,249.3z M33.6,250.8c0.4-3.2,0.1-8.5-5.5-9.1c-5.3-0.6-7,4.2-7.4,7.3l-1.1,9.7l12.9,1.5L33.6,250.8z"/>
		<path class="st0" d="M32.2,190.4l7.1-17.5l4,1.6L36.2,192L32.2,190.4z"/>
	</g>
	<g>
		<g>
			<path class="st0" d="M308.3,336.8c-9.3-5-17.9-7.3-25.7-6.9s-15.3,3.5-22.5,9.3c-7.2,5.8-14.6,14.6-22.1,26.5l-7.8-4.1
				c5.7-12.9,8.9-23.9,9.8-33c0.9-9.2-0.7-17.1-4.7-23.8c-4-6.7-10.8-12.6-20.3-17.7c-4.8-2.6-10.7-5.1-17.7-7.5l8.9-16.6
				c1.9,0.8,4.5,2.1,8,4c15.6,8.3,25.5,17.7,29.8,28.1c4.3,10.4,4.1,22-0.5,34.8l3.2,1.7l32.9-61.6l-36-77l10.2-19.1l37.6,82.8
				l89.5-14.9l-10.2,19.1l-84,12.9l-32.9,61.6l3.2,1.7c8.1-10.9,17.7-17.5,28.7-19.8c11-2.3,24.3,0.7,39.9,9c3.4,1.8,6,3.3,7.8,4.4
				l-8.9,16.6C318.5,342.9,313.1,339.4,308.3,336.8z"/>
		</g>
	</g>
</g>
</svg>
