<?xml version="1.0" encoding="utf-8"?>
<!-- Generator: Adobe Illustrator 26.3.1, SVG Export Plug-In . SVG Version: 6.00 Build 0)  -->
<svg version="1.1" id="Calque_1" xmlns="http://www.w3.org/2000/svg" xmlns:xlink="http://www.w3.org/1999/xlink" x="0px" y="0px"
	 viewBox="0 0 100 100" style="enable-background:new 0 0 100 100;" xml:space="preserve">
<style type="text/css">
	.st0{fill:#FFFFFF;}
</style>
<g>
	<g>
		<path class="st0" d="M50,100C22.4,100,0,77.6,0,50C0,22.4,22.4,0,50,0s50,22.4,50,50C100,77.6,77.6,100,50,100z M50,2.2
			C23.7,2.2,2.2,23.7,2.2,50c0,26.3,21.4,47.8,47.8,47.8S97.8,76.3,97.8,50C97.8,23.7,76.3,2.2,50,2.2z"/>
		<g>
			<path class="st0" d="M40.4,32.1c0,2.5-2,4.5-4.5,4.5c-2.5,0-4.5-2-4.5-4.5c0-2.5,2-4.5,4.5-4.5C38.5,27.6,40.4,29.6,40.4,32.1z"
				/>
		</g>
		<g>
			<rect x="32.2" y="39.8" class="st0" width="7.6" height="28"/>
		</g>
		<g>
			<path class="st0" d="M70.4,50.6c0,7.3,0,17.2,0,17.2h-7.6c0,0,0-10.4,0-14.3c0-8.6-10.2-7.9-10.2,0c0,4.2,0,14.3,0,14.3h-7.6v-28
				h7.6v4.5C56.1,37.7,70.4,37.2,70.4,50.6z"/>
		</g>
	</g>
</g>
</svg>
